<svg width="667" height="613" viewBox="0 0 667 613" fill="none" xmlns="http://www.w3.org/2000/svg">
<path d="M322.486 9.85797V241.915H198.295V9.85797H322.486ZM326.822 5.52179H193.959V246.237H326.822V5.52179Z" stroke="#A2A7A9" stroke-miterlimit="10"/>
<path d="M205.692 53.6733C206.942 54.5836 208.259 55.3984 209.631 56.1106C212.35 57.5121 215.168 58.7104 218.063 59.6958C219.48 60.1917 220.897 60.6452 222.413 61.1128C223.883 61.5588 225.392 61.8625 226.92 62.0197V61.6938C225.443 61.4621 223.991 61.092 222.583 60.5885C221.166 60.135 219.749 59.6249 218.332 59.0864C215.516 58.0136 212.784 56.7348 210.156 55.2604C208.86 54.5265 207.623 53.6926 206.457 52.7664C205.284 51.9312 204.315 50.8411 203.623 49.578L203.425 49.1245C203.425 48.9687 203.425 48.8128 203.326 48.6569C203.283 48.3561 203.283 48.0508 203.326 47.75C203.452 47.1316 203.735 46.556 204.147 46.0779C205.116 45.0514 206.283 44.2319 207.577 43.6689C208.235 43.3386 208.912 43.0453 209.603 42.7903C210.269 42.4927 211.02 42.2943 211.715 42.0534C213.106 41.5556 214.526 41.1392 215.966 40.8064L218.134 40.2821L220.33 39.9137C221.747 39.6303 223.292 39.5594 224.766 39.4035C230.77 39.1938 236.783 39.4496 242.748 40.1688C248.835 40.7985 254.951 41.1154 261.071 41.1182C267.21 41.0341 273.334 40.4942 279.393 39.5027C285.446 38.5066 291.422 37.0861 297.276 35.2516L299.458 34.5289C300.181 34.2738 300.876 33.9621 301.612 33.6787C302.349 33.3953 303.029 33.0977 303.738 32.7434C304.447 32.3891 305.155 32.1199 305.821 31.6948C307.204 30.9175 308.48 29.9649 309.619 28.8607C309.913 28.5855 310.179 28.2817 310.412 27.9538C310.665 27.6408 310.88 27.2982 311.05 26.9335C311.245 26.5661 311.361 26.1619 311.39 25.747C311.42 25.3321 311.362 24.9156 311.22 24.5245L310.937 24.6662C310.99 25.0078 310.975 25.3566 310.892 25.6924C310.809 26.0281 310.661 26.344 310.455 26.6217C310.274 26.9269 310.05 27.2038 309.789 27.4436C309.55 27.7125 309.279 27.9505 308.981 28.1521C307.808 29.0346 306.521 29.7544 305.155 30.2919C304.503 30.6178 303.738 30.8304 303.086 31.0996C302.391 31.3739 301.681 31.6104 300.961 31.8081C300.252 32.0065 299.544 32.2474 298.821 32.4458L296.639 32.9843C290.814 34.4014 284.863 35.3224 278.911 36.1585C275.921 36.4844 272.945 36.9237 269.955 37.1363C266.965 37.3488 263.99 37.6181 260.986 37.7598C254.971 37.9978 248.948 37.8889 242.946 37.4338C239.772 37.2496 236.57 37.0229 233.339 36.9379C233.438 34.7995 233.353 32.6565 233.084 30.5328C232.923 29.1613 232.628 27.8087 232.205 26.4942C232.082 26.1421 231.94 25.7969 231.78 25.4597C231.652 25.1338 231.341 24.6804 231.227 24.4395C231.114 24.1986 231.227 24.4395 231.227 24.4395C231.227 24.4395 231.227 24.3403 231.369 24.1986C231.611 23.8095 231.918 23.4645 232.276 23.1783C232.697 22.8045 233.142 22.4589 233.608 22.1438C234.623 21.5212 235.673 20.9582 236.754 20.4575C239.012 19.3044 241.387 18.397 243.839 17.751C246.262 17.07 248.752 16.6566 251.265 16.5181C253.761 16.4506 256.248 16.8396 258.605 17.666C263.454 19.3851 267.893 22.0921 271.642 25.6156L271.883 25.4031C270.128 23.4458 268.176 21.6746 266.059 20.1175C263.917 18.4977 261.585 17.1462 259.115 16.093C256.6 15.0455 253.917 14.4599 251.194 14.3642C248.503 14.3403 245.819 14.6112 243.187 15.1719C240.536 15.7063 237.941 16.4892 235.436 17.5101C234.147 18.0406 232.913 18.6956 231.752 19.4656C230.4 20.3006 229.283 21.4661 228.507 22.8524C228.259 23.3551 228.128 23.9074 228.124 24.4678C228.119 25.1256 228.328 25.7671 228.719 26.2958C228.932 26.6217 229.017 26.6926 229.173 26.9477C229.329 27.2027 229.442 27.4153 229.555 27.6845C230.077 28.7974 230.513 29.9486 230.859 31.128C231.454 33.0552 231.978 35.039 232.503 37.0229C229.869 36.9595 227.234 37.0446 224.61 37.278C223.065 37.4764 221.535 37.5897 220.018 37.9298L217.737 38.3691L215.498 38.9643C214.009 39.3574 212.543 39.8304 211.105 40.3813C209.641 40.8687 208.219 41.4753 206.854 42.1951C205.385 42.8966 204.081 43.9011 203.028 45.1426C202.461 45.8341 202.094 46.6669 201.965 47.5516C201.919 48.0262 201.952 48.5052 202.064 48.9687C202.103 49.1843 202.155 49.3973 202.22 49.6063L202.504 50.1873C203.295 51.571 204.384 52.7616 205.692 53.6733Z" fill="#919191"/>
<path d="M269.176 91.1968C268.757 90.1663 268.284 89.1588 267.759 88.1785C266.668 86.223 265.492 84.3383 264.259 82.5103C262.232 79.5061 260.121 76.587 257.939 73.6962C258.817 72.0808 259.653 70.4653 260.404 68.7932C261.297 66.866 262.119 64.9105 262.828 62.8983C264.878 63.2998 266.982 63.3478 269.048 63.04C271.409 62.6593 273.691 61.8984 275.808 60.7868C276.8 60.2342 277.806 59.6957 278.769 59.1006C279.733 58.5054 280.682 57.8535 281.604 57.1308C283.468 55.73 285.136 54.0857 286.563 52.242C287.313 51.2938 287.906 50.2318 288.32 49.0962C288.526 48.5125 288.641 47.9008 288.661 47.2823C288.699 46.642 288.519 46.0075 288.15 45.4827L287.867 45.6669C287.921 46.1742 287.87 46.6871 287.719 47.1744C287.568 47.6617 287.32 48.113 286.988 48.501C286.379 49.3398 285.67 50.1011 284.877 50.7683C284.48 51.1225 284.083 51.4626 283.658 51.7744C283.233 52.0861 282.836 52.4404 282.383 52.738L281.079 53.6732L279.662 54.5376L274.164 58.0519C272.438 59.2141 270.519 60.0587 268.496 60.546C266.467 61.0066 264.368 61.0644 262.317 60.716C260.223 60.342 258.203 59.6288 256.338 58.6046C252.491 56.469 249.117 53.5768 246.418 50.1023L246.149 50.2865C247.348 52.1936 248.75 53.9657 250.329 55.5721C251.901 57.2256 253.661 58.6903 255.572 59.9366C257.512 61.1773 259.636 62.105 261.864 62.6857C259.03 66.5826 256.508 70.5362 253.829 74.3764C252.299 76.587 250.797 78.8118 249.196 80.8665C248.454 81.8993 247.604 82.8494 246.659 83.7006C246.297 84.0194 245.879 84.2692 245.426 84.4375C245.355 84.4375 245.27 84.4375 245.214 84.4375C245.157 84.4375 245.143 84.4375 245.1 84.4375H244.944C244.882 84.3744 244.811 84.3218 244.732 84.2816C243.939 83.4115 243.332 82.3894 242.946 81.2774C242.473 80.0403 242.071 78.7771 241.742 77.4939C241.062 74.9007 240.537 72.2366 240.084 69.5584C239.12 64.2161 238.468 58.7888 237.887 53.3615H237.562C237.562 58.8313 237.944 64.3011 238.468 69.771C238.766 72.5059 239.134 75.2408 239.687 77.9615C239.952 79.3456 240.297 80.7131 240.722 82.0568C240.941 82.7602 241.211 83.4468 241.529 84.1115C241.88 84.873 242.359 85.5682 242.946 86.1663L243.527 86.6622C243.778 86.8067 244.039 86.9345 244.307 87.0448C244.595 87.1186 244.889 87.1707 245.185 87.2007C245.461 87.2013 245.737 87.1728 246.007 87.1157C246.863 86.913 247.669 86.5368 248.374 86.0104C249.571 85.1365 250.669 84.1339 251.647 83.0204C253.51 80.9188 255.158 78.6353 256.564 76.2044C256.961 75.5242 257.329 74.7873 257.712 74.1213C259.781 76.9554 261.793 79.9312 263.692 82.9212C264.882 84.7917 266.002 86.6906 267.022 88.5894C267.552 89.548 268.025 90.5369 268.439 91.5511C268.642 92.0419 268.804 92.5492 268.921 93.0673C269.077 93.705 269.077 93.7475 268.708 94.0026C267.762 94.3988 266.744 94.5966 265.718 94.5836C264.641 94.5836 263.55 94.5836 262.445 94.5836C260.263 94.4702 258.066 94.2577 255.884 93.9884C251.505 93.4641 247.141 92.7697 242.776 92.0187C238.412 91.2677 234.076 90.4741 229.725 89.6522L223.193 88.4052L221.563 88.0935L220.727 87.9376H220.302H220.174H219.749H219.437C219.306 87.9789 219.181 88.0411 219.069 88.1218C218.865 88.2469 218.702 88.4292 218.601 88.6461C218.558 88.7332 218.52 88.8232 218.488 88.9154V89.1137C218.455 89.3345 218.455 89.559 218.488 89.7798C218.506 90.1131 218.549 90.4447 218.616 90.7717C218.743 91.381 218.913 91.9195 219.083 92.4722C220.5 96.7942 222.371 100.804 224.128 104.886L229.442 117.058C232.885 125.192 236.244 133.368 238.851 141.729C240.181 145.837 241.13 150.059 241.685 154.341C241.975 156.333 241.927 158.359 241.543 160.335C241.361 161.165 240.987 161.941 240.452 162.602C239.786 163.353 239.035 164.147 238.228 164.898C235.138 167.973 231.794 170.849 228.464 173.754C225.134 176.659 221.761 179.55 218.545 182.597C215.247 185.609 212.124 188.807 209.192 192.176C207.745 193.896 206.433 195.724 205.267 197.646C204.067 199.565 203.245 201.696 202.844 203.923L203.17 203.994C204.36 199.743 207.279 196.314 210.255 193.168C213.329 190.029 216.579 187.067 219.99 184.297C226.778 178.629 233.863 173.372 240.467 167.293C241.288 166.499 242.068 165.734 242.89 164.841C243.777 163.797 244.408 162.559 244.732 161.228C245.251 158.859 245.352 156.418 245.029 154.015C244.392 149.519 243.319 145.096 241.827 140.808C238.879 132.395 235.507 124.137 231.723 116.066L226.197 103.979C224.369 99.9684 222.456 95.9298 221.01 91.877C220.836 91.4137 220.689 90.9405 220.571 90.4599C220.566 90.3561 220.566 90.252 220.571 90.1482L221.152 90.2332L222.782 90.5166L229.328 91.6503C233.707 92.4013 238.072 93.0673 242.465 93.7759C246.857 94.4844 251.25 95.0087 255.686 95.448C257.896 95.6464 260.121 95.8164 262.36 95.8731C263.465 95.8731 264.599 95.8731 265.718 95.8731C266.285 95.8731 266.866 95.7739 267.433 95.6747C268.047 95.5828 268.638 95.3761 269.176 95.0654C269.35 94.9638 269.502 94.8288 269.623 94.6683C269.745 94.5079 269.834 94.3249 269.885 94.1301C269.93 93.7859 269.891 93.4358 269.771 93.1098C269.639 92.4534 269.44 91.8123 269.176 91.1968Z" fill="#919191"/>
<path d="M318.164 95.2071C317.658 94.7003 317.043 94.3172 316.364 94.0876C315.181 93.7397 313.956 93.5585 312.723 93.5491C308.004 93.5491 303.469 94.2152 298.921 94.5836C296.639 94.782 294.372 94.9378 292.104 94.9237C290.978 94.9337 289.851 94.8722 288.732 94.7395C287.633 94.6392 286.555 94.3815 285.529 93.9743C283.487 93.0603 281.676 91.6995 280.23 89.9923C278.744 88.279 277.438 86.4176 276.333 84.4375C274.121 80.4318 272.363 76.1923 271.09 71.7974L270.778 71.8824C271.948 76.3464 273.621 80.663 275.766 84.7492C276.844 86.8063 278.136 88.7441 279.62 90.5308C281.118 92.3681 283.006 93.8493 285.147 94.867C286.246 95.3318 287.405 95.6418 288.59 95.7881C289.746 95.9482 290.91 96.0381 292.076 96.0573C294.4 96.0573 296.71 96.0573 299.02 95.8731C303.597 95.6039 308.202 95.0087 312.666 95.1646C313.728 95.1973 314.78 95.3688 315.798 95.6747C316.21 95.8202 316.587 96.0521 316.903 96.3549C317.13 96.6407 317.25 96.9964 317.243 97.361C317.224 97.5755 317.191 97.7885 317.144 97.9987C317.059 98.2112 317.016 98.4096 316.903 98.6364C316.662 99.1241 316.392 99.5973 316.095 100.053C315.486 100.96 314.792 101.853 314.083 102.746C311.249 106.26 308.117 109.633 305.056 113.048C298.906 119.864 292.756 126.722 287.116 134.049C284.251 137.675 281.593 141.46 279.153 145.385C278.529 146.377 277.948 147.383 277.395 148.417C276.843 149.452 276.304 150.501 275.78 151.563C275.256 152.626 274.845 153.731 274.363 154.823C273.881 155.914 273.527 157.061 273.244 158.238C272.558 160.621 272.271 163.101 272.393 165.578C272.393 166.216 272.521 166.853 272.62 167.477L273.13 169.362C273.499 170.538 273.91 171.544 274.32 172.649C275.978 176.9 277.679 181.151 279.266 185.473C280.853 189.795 282.412 193.976 283.744 198.369C285.04 202.705 286.076 207.115 286.847 211.576C287.558 216.049 287.824 220.582 287.641 225.108C287.4 229.656 286.668 234.165 285.459 238.556L285.756 238.655C287.432 234.34 288.583 229.84 289.185 225.25C289.639 220.613 289.639 215.943 289.185 211.306C288.636 206.689 287.769 202.116 286.592 197.618C285.373 193.14 283.928 188.733 282.341 184.382C280.754 180.032 279.096 175.752 277.495 171.473C277.126 170.41 276.644 169.305 276.319 168.299L275.908 166.882C275.823 166.386 275.78 165.876 275.709 165.365C275.584 163.256 275.805 161.14 276.361 159.102C276.588 158.039 276.999 157.005 277.31 155.956C277.622 154.908 278.09 153.887 278.586 152.881C279.082 151.875 279.507 150.855 280.003 149.863C280.499 148.871 281.051 147.879 281.618 146.915C283.921 143.001 286.438 139.217 289.157 135.579C294.599 128.267 300.578 121.408 306.615 114.422C309.605 110.951 312.666 107.521 315.528 103.865C316.237 102.944 316.945 102.023 317.583 101.031C317.916 100.516 318.219 99.9809 318.49 99.4299C318.627 99.1077 318.74 98.7762 318.83 98.438C318.909 98.0938 318.952 97.7424 318.958 97.3894C318.971 96.589 318.689 95.8117 318.164 95.2071Z" fill="#919191"/>
<path d="M99.3721 70.5503V70.947C99.5989 73.7811 100.789 90.9983 96.8498 95.9297C92.5986 101.3 82.5234 107.379 67.0917 110.61C51.6599 113.841 40.5928 115.613 35.5764 127.077C30.56 138.54 26.6206 175.426 26.6206 175.426C29.9495 178.269 33.8634 180.345 38.0846 181.506C44.8864 183.305 49.1801 182.583 51.6883 183.305L54.1965 184.014L60.2898 172.55L71.0311 229.133L70.6768 249.184C70.6768 249.184 53.1195 286.424 47.0403 319.016C40.9612 351.609 39.2466 451.128 38.8781 466.546C38.5097 481.963 37.4611 496.304 37.4611 496.304L37.1068 556.996H219.751C219.751 556.996 219.028 413.576 212.226 367.749C205.424 321.921 182.156 253.152 180.725 249.212C179.713 246.95 179.104 244.528 178.926 242.056C178.926 240.639 178.571 230.238 177.849 228.084C177.415 226.707 177.176 225.276 177.14 223.833C177.14 223.833 183.219 208.075 183.219 199.842V184.014L187.47 191.538C187.47 191.538 191.721 195.109 200.72 191.17C209.718 187.23 215.5 177.212 218.334 175.058C219.793 174.039 221.117 172.839 222.273 171.487C222.273 171.487 215.103 143.911 208.669 128.508C202.236 113.104 177.494 107.734 169.275 104.871C161.056 102.009 145.285 96.9925 142.776 92.3445C140.268 87.6966 140.92 70.5503 140.92 70.5503H99.3721Z" fill="#263238" stroke="#263238" stroke-miterlimit="10"/>
<path d="M183.191 184.014L187.442 191.538C187.442 191.538 191.693 195.109 200.691 191.17C209.69 187.23 215.5 177.212 218.334 175.058C219.793 174.039 221.117 172.839 222.273 171.487C222.273 171.487 215.103 143.911 208.669 128.508C202.236 113.104 177.494 107.734 169.275 104.871C161.056 102.009 145.285 96.9925 142.776 92.3445C140.268 87.6966 140.92 70.5503 140.92 70.5503H99.3721V70.947C99.5989 73.7811 100.789 90.9983 96.8498 95.9297C92.5986 101.3 82.5234 107.379 67.0917 110.61C51.6599 113.841 40.5928 115.613 35.5764 127.077C30.56 138.541 26.6206 175.426 26.6206 175.426C29.9495 178.269 33.8634 180.345 38.0846 181.506C44.8864 183.305 49.1801 182.583 51.6883 183.305L54.1965 184.014L60.2898 172.55L71.0311 229.133C71.0311 229.133 135.068 242.127 177.027 223.762C177.027 223.762 183.106 208.004 183.106 199.771L183.191 184.014Z" fill="white" stroke="#263238" stroke-miterlimit="10"/>
<path d="M119.821 120.629C144.562 121.564 159.711 111.39 167.264 104.191C158.761 101.258 145.058 96.6524 142.734 92.3445C140.226 87.6824 140.878 70.5503 140.878 70.5503H99.3727V70.947C99.5994 73.7811 100.79 90.9983 96.8503 95.9297C93.4352 100.181 86.3783 104.914 75.8921 108.301C81.2627 112.623 93.8178 119.651 119.821 120.629Z" fill="#858585" stroke="#263238" stroke-linecap="round" stroke-linejoin="round"/>
<path d="M140.877 70.5503C140.877 75.2266 131.595 79.0526 120.131 79.0526C108.667 79.0526 99.3711 75.2691 99.3711 70.5503C99.3711 65.8315 108.667 62.048 120.131 62.048C131.595 62.048 140.877 65.8882 140.877 70.5503Z" fill="#A3A3A3" stroke="#263238" stroke-linecap="round" stroke-linejoin="round"/>
<path d="M89.5229 233.115C87.9203 235.467 87.2486 238.33 87.6382 241.149C88.1059 246.336 88.1059 256.255 88.1059 256.255C88.1059 256.255 85.7535 284.129 86.2212 308.219" stroke="#808080" stroke-miterlimit="10"/>
<path d="M82.92 251.536C82.92 251.536 73.9358 303.5 77.2517 328.057" stroke="#808080" stroke-miterlimit="10"/>
<path d="M57.7678 322.063C57.612 323.48 57.4986 324.812 57.4136 326.173" stroke="#808080" stroke-miterlimit="10"/>
<path d="M79.604 256.737C79.604 256.737 64.0164 286.368 58.915 314.34" stroke="#808080" stroke-miterlimit="10"/>
<path d="M149.394 330.225C149.309 332.252 149.196 334.221 149.04 336.092" stroke="#808080" stroke-miterlimit="10"/>
<path d="M144.789 237.833V254.37C144.789 254.37 149.635 292.39 149.55 322.021" stroke="#808080" stroke-miterlimit="10"/>
<path d="M165.577 231.698L167.462 249.652C167.462 249.652 179.748 291.682 179.748 325.691" stroke="#808080" stroke-miterlimit="10"/>
<path d="M193.479 313.221C194.038 316.722 194.341 320.26 194.385 323.806" stroke="#808080" stroke-miterlimit="10"/>
<path d="M171.713 228.863C171.713 230.281 174.08 247.285 174.08 247.285C174.08 247.285 185.841 277.383 191.467 302.55" stroke="#808080" stroke-miterlimit="10"/>
<path d="M393.34 63.0966C382.441 63.0966 371.988 67.4262 364.281 75.1329C356.575 82.8397 352.245 93.2922 352.245 104.191V537.087H364.999V104.191C364.999 96.6746 367.985 89.466 373.299 84.151C378.614 78.836 385.823 75.8501 393.34 75.8501H657.62V63.0966H393.34Z" fill="white" stroke="#263238" stroke-miterlimit="10"/>
<path d="M607.302 148.942L599.196 143.344C587.464 135.022 578.319 123.558 572.811 110.27L566.051 94.5127H555.324L548.508 110.27C542.993 123.558 533.843 135.021 522.109 143.344L514.003 148.942C511.677 150.674 509.8 152.937 508.528 155.543C507.256 158.149 506.626 161.021 506.691 163.92H614.557C614.629 161.026 614.008 158.157 612.746 155.551C611.484 152.946 609.617 150.68 607.302 148.942ZM563.699 157.288H517.333C517.333 152.314 525.269 147.709 528.4 145.172L534.069 140.638C542.439 133.515 548.734 124.268 552.292 113.87L556.968 101.116H564.394L569.07 113.87C572.648 124.264 578.963 133.502 587.35 140.609L593.018 145.144C596.164 147.681 603.929 152.229 603.929 157.26L563.699 157.288Z" fill="white" stroke="#263238" stroke-linejoin="round"/>
<path d="M560.622 94.2576V82.6945C560.622 82.6945 567.226 77.7348 567.226 70.5645C567.226 63.3942 561.728 60.6451 555.663 62.8557" stroke="#263238" stroke-linecap="round" stroke-linejoin="round"/>
<path d="M545.05 113.572L557.534 149.466L572.81 110.27C572.81 110.27 598.898 136.982 607.471 141.658C616.044 146.334 623.852 152.584 626.204 165.068C628.557 177.552 641.027 302.338 641.027 302.338L612.161 303.897L614.769 374.607H498.244L505.33 300.921H477.952C477.952 300.921 495.113 165.932 499.803 156.565C504.494 147.199 545.05 113.572 545.05 113.572Z" fill="#263238" stroke="#263238" stroke-linejoin="round"/>
<path d="M533.344 122.159L540.372 160.392L555.195 135.423L545.828 108.896L533.344 122.159Z" fill="white" stroke="#263238" stroke-linejoin="round"/>
<path d="M572.81 110.27L559.872 136.202L573.136 161.95L584.061 119.028L572.81 110.27Z" fill="white" stroke="#263238" stroke-linejoin="round"/>
<path d="M612.161 303.953L605.912 185.36" stroke="#808080" stroke-miterlimit="10"/>
<path d="M505.259 300.836L516.184 185.36" stroke="#263238" stroke-linejoin="round"/>
<path d="M576.394 148.942L568.345 143.344C556.616 135.019 547.472 123.556 541.96 110.27L535.2 94.5127H524.417L517.657 110.27C512.145 123.556 503 135.019 491.272 143.344L483.166 148.942C480.84 150.674 478.963 152.937 477.691 155.543C476.419 158.149 475.789 161.021 475.854 163.92H583.706C583.771 161.021 583.141 158.149 581.869 155.543C580.597 152.937 578.72 150.674 576.394 148.942ZM532.791 157.288H486.44C486.44 152.314 494.361 147.709 497.507 145.172L503.175 140.638C511.025 134.304 517.345 125.05 521.441 113.898L526.117 101.145H533.557L538.233 113.898C542.314 125.022 548.648 134.304 556.499 140.638L562.167 145.172C565.313 147.709 573.092 152.258 573.092 157.288H532.791Z" fill="white" stroke="#263238" stroke-linejoin="round"/>
<path d="M529.717 94.2577V82.6945C529.717 82.6945 536.334 77.7348 536.334 70.5645C536.334 63.3942 530.822 60.6452 524.757 62.8558" stroke="#263238" stroke-linecap="round" stroke-linejoin="round"/>
<path d="M514.157 113.572L526.641 149.466L541.903 110.27C541.903 110.27 567.991 136.982 576.578 141.658C585.166 146.334 592.959 152.584 595.298 165.068C597.636 177.552 610.12 302.338 610.12 302.338L581.255 303.897L583.933 374.607H467.338L474.423 300.921H447.045C447.045 300.921 464.22 165.932 468.896 156.565C473.573 147.199 514.157 113.572 514.157 113.572Z" fill="#D4F1F3" stroke="#263238" stroke-linejoin="round"/>
<path d="M502.453 122.159L509.468 160.392L524.304 135.423L514.937 108.896L502.453 122.159Z" fill="white" stroke="#263238" stroke-linejoin="round"/>
<path d="M541.904 110.27L528.98 136.202L542.244 161.95L553.169 119.028L541.904 110.27Z" fill="white" stroke="#263238" stroke-linejoin="round"/>
<path d="M581.256 303.953L575.007 185.36" stroke="#263238" stroke-linejoin="round"/>
<path d="M474.368 300.836L485.279 185.36" stroke="#263238" stroke-linejoin="round"/>
<path d="M508.715 153.816L500.213 147.893C487.824 139.107 478.163 127.005 472.34 112.977L465.254 96.3265H453.918L446.833 112.977C440.964 127.019 431.248 139.118 418.803 147.879L410.301 153.802C407.837 155.628 405.847 158.019 404.499 160.773C403.15 163.527 402.482 166.565 402.55 169.631H516.467C516.532 166.567 515.863 163.532 514.514 160.781C513.166 158.029 511.177 155.641 508.715 153.816ZM462.661 162.63H413.702C413.702 157.373 422.077 152.513 425.393 149.877L431.316 145.045C439.606 138.356 446.308 128.55 450.616 116.803L455.562 103.327H463.398L468.343 116.803C472.595 128.55 479.354 138.356 487.644 145.045L493.567 149.834C496.883 152.513 505.088 157.373 505.088 162.588L462.661 162.63Z" fill="white" stroke="#263238" stroke-linejoin="round"/>
<path d="M459.418 96.0573V83.8281C459.418 83.8281 466.39 78.5992 466.39 71.0747C466.39 63.5501 460.651 60.5601 454.175 62.8557" stroke="#263238" stroke-linecap="round" stroke-linejoin="round"/>
<path d="M426.868 135.366C426.868 135.366 439.848 150.33 456.159 150.585C473.475 150.855 493.824 135.706 493.824 135.706C498.461 139.71 503.516 143.202 508.901 146.122C517.956 151.067 523.922 158.294 528.669 170.849C533.969 184.822 545.674 222.855 545.674 222.855L511.976 224.499L516.596 300.921H404.521L412.117 223.068H379.397C379.397 223.068 390.237 171.671 395.183 161.78C400.128 151.889 426.868 135.366 426.868 135.366Z" fill="white" stroke="#263238" stroke-linejoin="round"/>
<path d="M412.116 223.068L413.831 182.214" stroke="#263238" stroke-linejoin="round"/>
<path d="M511.976 224.499L509.34 184.822" stroke="#263238" stroke-linejoin="round"/>
<path d="M7.66113 557.351H659.506" stroke="#263238" stroke-linecap="round" stroke-linejoin="round"/>
<path d="M38.6228 475.785C38.6228 475.785 38.2968 467.283 34.6975 461.388C31.0982 455.493 18.0188 451.242 11.1461 454.189C7.66984 455.621 4.28182 457.258 1 459.092C7.82756 461.238 14.3233 464.324 20.3003 468.261C25.8273 471.998 32.064 474.56 38.6228 475.785Z" fill="#D4F1F3" stroke="#263238" stroke-linecap="round" stroke-linejoin="round"/>
<path d="M52.3547 480.036C52.3547 480.036 44.5042 472.512 43.2005 462.04C41.8968 451.568 53.0207 435.215 53.0207 435.215C56.6978 442.205 59.6557 449.549 61.8489 457.137C65.1223 468.912 52.3547 480.036 52.3547 480.036Z" fill="#D4F1F3" stroke="#263238" stroke-linecap="round" stroke-linejoin="round"/>
<path d="M67.4029 476.763C67.4029 476.763 65.4473 466.943 69.0467 460.084C72.646 453.226 82.1261 453.863 91.6061 456.811C101.086 459.758 104.048 459.758 104.048 459.758C97.5067 464.144 90.6099 467.974 83.4297 471.208C78.2179 473.417 72.8636 475.272 67.4029 476.763Z" fill="#D4F1F3" stroke="#263238" stroke-linecap="round" stroke-linejoin="round"/>
<path d="M52.4537 512.062C52.2282 512.062 52.012 511.972 51.8525 511.813C51.6931 511.653 51.6035 511.437 51.6035 511.211V464.449C51.6035 464.223 51.6931 464.007 51.8525 463.848C52.012 463.688 52.2282 463.598 52.4537 463.598C52.5647 463.598 52.6746 463.621 52.777 463.663C52.8794 463.706 52.9722 463.769 53.05 463.848C53.1278 463.927 53.1891 464.021 53.2303 464.124C53.2715 464.227 53.2917 464.338 53.2898 464.449V511.211C53.2917 511.322 53.2715 511.433 53.2303 511.536C53.1891 511.639 53.1278 511.733 53.05 511.812C52.9722 511.891 52.8794 511.954 52.777 511.997C52.6746 512.04 52.5647 512.062 52.4537 512.062Z" fill="#263238"/>
<path d="M56.3785 512.062H56.251C56.0316 512.027 55.8341 511.908 55.6995 511.732C55.565 511.555 55.5036 511.333 55.5283 511.112C55.6983 509.936 59.6519 482.219 73.0714 466.829C73.224 466.676 73.4292 466.587 73.6451 466.58C73.8611 466.573 74.0717 466.648 74.2341 466.791C74.3965 466.934 74.4985 467.133 74.5194 467.348C74.5403 467.563 74.4786 467.778 74.3468 467.949C61.2532 482.955 57.2429 511.056 57.2146 511.339C57.1842 511.539 57.0833 511.722 56.93 511.855C56.7767 511.987 56.5811 512.061 56.3785 512.062Z" fill="#263238"/>
<path d="M48.5278 511.353C48.4168 511.353 48.307 511.331 48.2046 511.288C48.1022 511.245 48.0094 511.182 47.9316 511.103C47.8538 511.024 47.7925 510.93 47.7513 510.827C47.7101 510.724 47.6899 510.614 47.6918 510.503C47.6918 510.234 47.8193 483.579 31.9767 470.939C31.825 470.791 31.7339 470.592 31.7213 470.381C31.7086 470.169 31.7752 469.961 31.9081 469.796C32.041 469.631 32.2307 469.522 32.4399 469.49C32.6491 469.457 32.8629 469.504 33.0394 469.621C49.5198 482.814 49.3922 509.398 49.3781 510.517C49.3781 510.628 49.356 510.738 49.3131 510.84C49.2702 510.943 49.2073 511.036 49.1282 511.113C49.0491 511.191 48.9552 511.252 48.8521 511.294C48.7491 511.335 48.6388 511.355 48.5278 511.353Z" fill="#263238"/>
<path d="M61.6074 511.027C61.5324 511.041 61.4556 511.041 61.3807 511.027C61.1655 510.968 60.9824 510.826 60.8711 510.632C60.7597 510.438 60.729 510.209 60.7855 509.993C62.4523 504.285 65.0367 498.886 68.4376 494.009C68.573 493.829 68.7731 493.709 68.9954 493.675C69.2176 493.641 69.4445 493.694 69.6279 493.824C69.7183 493.89 69.7948 493.973 69.853 494.069C69.9113 494.165 69.95 494.271 69.9672 494.381C69.9843 494.492 69.9794 494.605 69.9528 494.713C69.9262 494.822 69.8784 494.924 69.8121 495.015C66.5586 499.721 64.076 504.916 62.4576 510.404C62.409 510.59 62.298 510.753 62.1432 510.866C61.9883 510.98 61.7992 511.037 61.6074 511.027Z" fill="#263238"/>
<path d="M66.7088 498.019C66.7088 498.019 66.3828 488.865 70.3081 487.561C74.2333 486.257 77.8326 489.516 80.7801 491.486C83.7276 493.456 86.9868 495.411 86.9868 501.292C86.9868 507.173 84.7053 517.985 84.7053 517.985C84.7053 517.985 81.4319 507.839 75.8629 503.262C70.2939 498.685 66.7088 498.019 66.7088 498.019Z" fill="#D4F1F3" stroke="#263238" stroke-linecap="round" stroke-linejoin="round"/>
<path d="M42.6181 511.353C42.4395 511.353 42.2654 511.297 42.1204 511.193C41.9754 511.089 41.867 510.942 41.8104 510.772C41.8104 510.687 39.1889 502.78 33.3081 498.09C33.2193 498.022 33.1451 497.937 33.0897 497.84C33.0344 497.743 32.9991 497.635 32.9858 497.524C32.9726 497.413 32.9818 497.301 33.0128 497.194C33.0438 497.086 33.096 496.986 33.1664 496.899C33.308 496.726 33.5111 496.615 33.733 496.589C33.9549 496.562 34.1785 496.623 34.3567 496.758C40.6909 501.774 43.355 509.908 43.4684 510.248C43.5351 510.462 43.5145 510.694 43.411 510.893C43.3075 511.092 43.1294 511.242 42.9157 511.311L42.6181 511.353Z" fill="#263238"/>
<path d="M38.6229 500.966C38.6229 500.966 39.9266 495.057 36.6532 490.806C33.3798 486.555 25.5294 487.533 21.6041 492.11C17.6789 496.687 12.124 510.432 12.124 510.432C12.124 510.432 19.9745 504.211 29.1287 504.211C38.2828 504.211 38.6229 500.966 38.6229 500.966Z" fill="#D4F1F3" stroke="#263238" stroke-linecap="round" stroke-linejoin="round"/>
<path d="M64.682 561.503H38.5799L25.5288 518.325H77.7331L64.682 561.503Z" fill="white" stroke="#263238" stroke-linecap="round" stroke-linejoin="round"/>
<path d="M77.8763 511.169H25.3745V518.325H77.8763V511.169Z" fill="white" stroke="#263238" stroke-linecap="round" stroke-linejoin="round"/>
<path d="M597.255 483.324H584.983V490.423H597.255V483.324Z" fill="white" stroke="#263238" stroke-linecap="round" stroke-linejoin="round"/>
<path d="M614.316 561.503H567.936L578.918 488.496H603.334L614.316 561.503Z" fill="#858585" stroke="#263238" stroke-linecap="round" stroke-linejoin="round"/>
<path d="M577.43 500.555L599.876 488.595" stroke="#263238" stroke-linecap="round" stroke-linejoin="round"/>
<path d="M577.43 506.649L599.876 494.703" stroke="#263238" stroke-linecap="round" stroke-linejoin="round"/>
<path d="M604.766 501.037L582.064 513.734" stroke="#263238" stroke-linecap="round" stroke-linejoin="round"/>
<path d="M581.34 521.542L589.148 517.631" stroke="#263238" stroke-linecap="round" stroke-linejoin="round"/>
<path d="M609.158 529.591L576.453 546.68" stroke="#263238" stroke-linecap="round" stroke-linejoin="round"/>
<path d="M579.867 553.27L605.983 539.595" stroke="#263238" stroke-linecap="round" stroke-linejoin="round"/>
<path d="M576.949 554.488L570.6 558.144" stroke="#263238" stroke-linecap="round" stroke-linejoin="round"/>
<path d="M611.595 549.118L594.761 557.903" stroke="#263238" stroke-linecap="round" stroke-linejoin="round"/>
<path d="M564.365 483.324H552.093V490.423H564.365V483.324Z" fill="white" stroke="#263238" stroke-linecap="round" stroke-linejoin="round"/>
<path d="M581.412 561.503H535.046L546.014 488.496H570.444L581.412 561.503Z" fill="white" stroke="#263238" stroke-linecap="round" stroke-linejoin="round"/>
<path d="M544.541 500.555L566.987 488.595" stroke="#263238" stroke-linecap="round" stroke-linejoin="round"/>
<path d="M544.541 506.649L566.987 494.703" stroke="#263238" stroke-linecap="round" stroke-linejoin="round"/>
<path d="M571.862 501.037L549.175 513.734" stroke="#263238" stroke-linecap="round" stroke-linejoin="round"/>
<path d="M548.438 521.542L556.246 517.631" stroke="#263238" stroke-linecap="round" stroke-linejoin="round"/>
<path d="M576.253 529.591L543.562 546.68" stroke="#263238" stroke-linecap="round" stroke-linejoin="round"/>
<path d="M546.978 553.27L573.08 539.595" stroke="#263238" stroke-linecap="round" stroke-linejoin="round"/>
<path d="M544.044 554.488L537.696 558.144" stroke="#263238" stroke-linecap="round" stroke-linejoin="round"/>
<path d="M578.691 549.118L561.856 557.903" stroke="#263238" stroke-linecap="round" stroke-linejoin="round"/>
<path d="M361.313 307.51C361.313 307.51 305.113 318.365 289.993 322.148C274.873 325.932 269.204 337.268 264.018 350.022C258.832 362.775 221.974 443.547 220.089 448.266C218.205 452.985 230.009 455.819 244.647 461.019C259.285 466.22 267.787 471.888 272.039 466.22C276.29 460.552 287.159 438.814 287.159 438.814L282.44 557.407H456.737L449.17 433.656C449.17 433.656 455.788 337.297 455.32 333.513C454.853 329.729 397.221 307.057 391.071 306.589C384.921 306.121 361.313 307.51 361.313 307.51Z" fill="#D4F1F3"/>
<g opacity="0.4">
<path opacity="0.4" d="M284.821 497.353L284.538 504.608C340.516 513.404 397.453 514.291 453.678 507.244L453.238 500.158C397.251 507.227 340.542 506.282 284.821 497.353Z" fill="white"/>
<path opacity="0.4" d="M434.844 384.924C431.543 387.843 401.317 413.761 366.301 416.099C329.217 418.55 297.036 399.661 296.866 399.548L254.439 371.972C253.504 374.069 252.526 376.223 251.506 378.519L293.125 405.57C294.542 406.392 327.474 425.749 366.811 423.17C406.149 420.591 438.614 391.159 439.974 389.912C440.184 389.718 440.37 389.499 440.527 389.26C444.342 383.768 448.577 378.58 453.195 373.743C453.422 370.087 453.649 366.502 453.861 363.073C446.757 369.654 440.382 376.979 434.844 384.924Z" fill="white"/>
<path opacity="0.4" d="M233.566 418.196L230.647 424.658L282.71 447.515C284.013 445.007 285.147 442.782 285.955 441.209L233.566 418.196Z" fill="white"/>
<path opacity="0.4" d="M264.812 348.094C283.348 357.617 336.048 384.088 352.882 385.717C369.717 387.347 426.187 348.109 450.914 330.268C449.001 329.219 446.55 328.015 443.73 326.711C410.358 350.574 365.154 379.78 353.563 378.66C339.69 377.328 294.401 355.406 267.732 341.633C266.697 343.716 265.734 345.87 264.812 348.094Z" fill="white"/>
<path opacity="0.4" d="M287.528 449.612C289.937 450.349 347.044 467.524 390.973 462.366C428.61 458.001 445.005 445.361 449.568 440.997L449.115 433.571C449.115 433.571 449.285 431.063 449.582 426.868C447.56 429.46 446.029 432.399 445.062 435.541C442.228 438.375 427.179 451.128 390.222 455.38C348.957 460.155 293.508 444.043 289.781 442.895L287.046 441.691L286.749 449.286L287.131 449.47L287.528 449.612Z" fill="white"/>
<path opacity="0.4" d="M335.509 401.532C366.117 406.732 403.273 388.962 426.526 369.039C434.873 361.882 445.189 354.046 454.768 347.088C454.967 343.432 455.123 340.343 455.222 338.019C444.325 345.827 431.784 355.194 421.921 363.654C399.928 382.515 365.041 399.378 336.699 394.546C313.644 390.62 275.979 364.887 261.964 354.868C261.142 356.753 260.164 358.992 259.045 361.514C274.292 372.383 311.405 397.436 335.509 401.532Z" fill="white"/>
<path opacity="0.4" d="M455.477 536.747L455.038 529.662C418.776 531.532 346.662 534.054 283.574 528.911L283.291 535.996C311.278 538.263 340.965 539.057 368.555 539.057C403.556 539.057 435.142 537.795 455.477 536.747Z" fill="white"/>
<path opacity="0.4" d="M310.243 484.599C353.265 490.82 433.13 484.684 452.189 483.069L450.914 462.082C450.601 462.7 450.322 463.334 450.078 463.981C449.841 464.58 449.777 465.233 449.893 465.866L451.736 475.984C433.314 477.528 353.066 483.636 311.249 477.585C302.959 476.38 294.343 474.907 285.742 473.334L285.458 480.49C293.819 482.006 302.166 483.423 310.243 484.599Z" fill="white"/>
<path opacity="0.4" d="M288.718 425.848C291.552 427.52 331.343 451.015 373.926 445.928C417.117 440.784 445.813 412.528 447.017 411.323C447.336 411.029 447.584 410.666 447.74 410.261C448.64 408.825 449.743 407.527 451.013 406.406C451.226 403.246 451.438 399.944 451.665 396.487C445.048 401.532 442.525 404.989 441.618 406.619C438.132 409.92 411.194 434.294 373.09 438.843C332.363 443.717 292.7 419.925 292.318 419.684L292.133 419.571L244.308 394.446C243.33 396.586 242.352 398.697 241.389 400.908L288.718 425.848Z" fill="white"/>
</g>
<path d="M287.159 438.814L298.949 381.99" stroke="#263238" stroke-linecap="round" stroke-linejoin="round"/>
<path d="M279.167 327.108C296.172 338.969 345.769 372.992 355.178 372.213C363.794 371.504 403.004 334.746 421.298 317.16C407.383 311.605 393.878 306.773 391.072 306.561C384.936 306.093 361.314 307.51 361.314 307.51C361.314 307.51 305.114 318.365 289.994 322.148C286.097 323.081 282.419 324.766 279.167 327.108Z" fill="white" stroke="#263238" stroke-linecap="round" stroke-linejoin="round"/>
<path d="M361.313 307.51C361.313 307.51 305.113 318.365 289.993 322.148C274.873 325.932 269.204 337.268 264.018 350.022C258.832 362.775 221.974 443.547 220.089 448.266C218.205 452.985 230.009 455.819 244.647 461.019C259.285 466.22 267.787 471.888 272.039 466.22C276.29 460.552 287.159 438.814 287.159 438.814L282.44 557.407H456.737L449.17 433.656C449.17 433.656 455.788 337.297 455.32 333.513C454.853 329.729 397.221 307.057 391.071 306.589C384.921 306.121 361.313 307.51 361.313 307.51Z" stroke="#263238" stroke-linecap="round" stroke-linejoin="round"/>
<path d="M404.307 309.423C404.307 309.423 402.89 337.297 396.74 378.391C390.59 419.486 390.604 417.587 390.604 436.49C390.604 455.394 395.323 515.845 395.323 515.845H402.89C402.89 515.845 396.74 452.078 397.222 435.541C397.703 419.004 401.473 385.944 405.724 371.306C409.975 356.668 411.392 313.207 411.392 313.207L404.307 309.423Z" fill="white" stroke="#263238" stroke-linecap="round" stroke-linejoin="round"/>
<path d="M345.868 309.933L335.806 312.257C335.806 312.257 331.555 339.649 333.454 366.105C335.353 392.562 338.173 400.582 338.173 400.582C338.173 400.582 340.539 336.347 342.424 324.543C344.309 312.739 345.868 309.933 345.868 309.933Z" fill="white" stroke="#263238" stroke-linecap="round" stroke-linejoin="round"/>
<path d="M338.173 400.554C338.173 400.554 339.122 430.312 337.224 461.487C335.325 492.662 335.339 520.068 335.339 520.068L343.841 520.536C343.841 520.536 342.892 484.642 342.892 454.402C342.914 436.348 341.334 418.328 338.173 400.554Z" fill="white" stroke="#263238" stroke-linecap="round" stroke-linejoin="round"/>
<path d="M351.394 337.268L352.811 289.556H401.94L400.99 333.017" fill="white"/>
<path d="M351.394 337.268L352.811 289.556H401.94L400.99 333.017" stroke="#263238" stroke-linecap="round" stroke-linejoin="round"/>
<path d="M401.657 302.621L389.711 289.584H352.867L351.833 324.472C354.582 325.549 361.115 327.037 372.479 323.721C387.146 319.47 400.098 304.874 401.699 303.018L401.657 302.621Z" fill="#263238" stroke="#263238" stroke-linecap="round" stroke-linejoin="round"/>
<path d="M329.741 173.117C319.907 182.951 311.66 196.569 311.249 208.543C310.753 222.643 302.506 242.552 298.127 244.494C296.015 245.307 294.048 246.455 292.303 247.895C292.303 247.895 301.528 252.273 305.41 251.777C307.911 251.46 310.363 250.832 312.708 249.907C311.193 251.938 309.57 253.887 307.848 255.745L305.906 257.686L313.672 259.628C310.793 261.466 307.694 262.932 304.447 263.992C302.383 264.553 300.263 264.881 298.127 264.97C298.127 264.97 299.105 273.713 309.307 276.632C315.13 278.366 321.253 278.849 327.276 278.05L321.452 283.916C321.452 283.916 322.869 285.333 332.618 285.857C342.367 286.382 347.185 283.434 347.185 283.434L406.942 280.997C406.942 280.997 408.359 285.857 415.204 288.281C422.048 290.704 425.407 291.682 425.407 291.682C425.407 291.682 424.429 287.799 423.99 285.857C423.55 283.916 422.572 276.136 422.572 276.136C422.572 276.136 425.973 284.88 442 285.376C458.027 285.872 463.369 276.632 463.369 276.632C461.429 276.518 459.539 275.967 457.841 275.02C456.143 274.072 454.681 272.754 453.563 271.163C449.681 265.82 449.185 263.865 449.185 263.865C449.185 263.865 455.505 266.302 460.365 265.82C463.582 265.347 466.606 263.999 469.109 261.923C469.109 261.923 450.163 248.32 449.185 239.095C448.207 229.87 445.784 193.919 438.982 181.775C432.18 169.631 420.56 158.464 390.405 153.108C374.123 150.274 357.02 154.993 342.792 162.914C337.997 165.703 333.606 169.136 329.741 173.117Z" fill="#263238" stroke="#263238" stroke-linecap="round" stroke-linejoin="round"/>
<path d="M407.24 217.414C407.24 217.414 378.29 242.524 333.298 249.482C333.298 249.482 333.426 278.064 348.886 297.151C365.636 317.883 375.923 318.053 380.231 317.713C391.95 316.792 415.842 289.117 416.905 284.299C417.967 279.481 419.554 261.243 419.554 249.482C419.554 237.72 405.625 229.728 407.24 217.414Z" fill="white" stroke="#263238" stroke-linecap="round" stroke-linejoin="round"/>
<path d="M324.116 257.729C323.714 257.729 323.328 257.569 323.044 257.285C322.759 257.001 322.6 256.615 322.6 256.213C322.6 255.811 322.759 255.425 323.044 255.141C323.328 254.856 323.714 254.697 324.116 254.697C383.476 253.053 404.817 220.177 405.03 219.837C405.261 219.538 405.595 219.336 405.967 219.271C406.338 219.206 406.721 219.281 407.04 219.483C407.359 219.686 407.592 219.999 407.691 220.363C407.791 220.728 407.752 221.116 407.58 221.452C406.702 222.869 385.29 256.029 324.201 257.729H324.116Z" fill="#263238"/>
<path d="M351.153 266.6C354.57 267.26 358.081 267.26 361.498 266.6" stroke="#263238" stroke-linecap="round" stroke-linejoin="round"/>
<path d="M394.642 266.061C398.594 266.806 402.657 266.719 406.574 265.806" stroke="#263238" stroke-linecap="round" stroke-linejoin="round"/>
<path d="M401.133 262.164C401.133 264.517 400.184 266.415 398.993 266.415C397.803 266.415 396.868 264.502 396.868 262.164C396.868 259.826 397.817 257.913 398.993 257.913C400.169 257.913 401.133 259.826 401.133 262.164Z" fill="#263238"/>
<path d="M421.382 255.575C420.518 253.917 418.548 252.854 415.374 252.415C410.4 251.721 383.433 253.52 382.286 253.591L381.818 253.69C381.53 253.812 381.25 253.954 380.982 254.116V253.974H372.579V254.116C372.31 253.954 372.031 253.812 371.743 253.69L371.275 253.591C370.127 253.52 343.161 251.707 338.187 252.415C335.069 252.854 333.043 253.917 332.179 255.575C331.861 256.173 331.695 256.839 331.695 257.516C331.695 258.193 331.861 258.86 332.179 259.458C332.292 259.699 332.434 260.095 332.618 260.62C334.177 265.013 338.286 276.689 352.938 277.256H354.866C369.475 277.256 373.046 270.355 375.229 263.822C375.399 263.293 375.536 262.753 375.64 262.207H377.808C377.911 262.753 378.049 263.293 378.219 263.822C380.401 270.355 383.958 277.256 398.582 277.256H400.509C415.133 276.689 419.271 265.013 420.829 260.62C421.014 260.095 421.155 259.699 421.269 259.458C421.604 258.869 421.79 258.208 421.809 257.531C421.829 256.854 421.682 256.182 421.382 255.575ZM375.243 257.148H378.318C378.03 257.757 377.839 258.407 377.751 259.075H375.81C375.723 258.403 375.532 257.748 375.243 257.134V257.148ZM372.281 262.816C370.127 269.278 367.208 274.564 353.123 274.053C340.652 273.572 337.152 263.723 335.65 259.514C335.409 258.834 335.225 258.31 335.069 257.998C334.979 257.851 334.924 257.685 334.909 257.512C334.894 257.34 334.92 257.167 334.984 257.006C335.112 256.765 335.764 255.915 338.64 255.504C339.78 255.4 340.925 255.358 342.07 255.377C349.297 255.377 364.246 256.255 370.765 256.695C371.502 257.105 373.67 258.65 372.281 262.845V262.816ZM418.491 257.998C418.335 258.31 418.151 258.834 417.91 259.514C416.408 263.766 412.908 273.572 400.438 274.053C386.367 274.578 383.433 269.278 381.279 262.816C379.862 258.565 382.059 257.148 382.796 256.695C390.717 256.17 411.137 254.966 414.92 255.504C417.754 255.915 418.449 256.765 418.576 257.006C418.649 257.17 418.68 257.349 418.665 257.527C418.65 257.706 418.59 257.877 418.491 258.027V257.998Z" fill="white" stroke="#263238" stroke-linecap="round" stroke-linejoin="round"/>
<path d="M368.428 281.805C368.428 281.805 373.557 285.801 377.256 285.517C380.954 285.234 384.667 282.683 385.517 280.954" stroke="#263238" stroke-linecap="round" stroke-linejoin="round"/>
<path d="M364.445 288.932C364.445 288.932 366.528 295.763 379.254 295.196C388.266 294.785 390.363 288.111 390.363 288.111" stroke="#263238" stroke-linecap="round" stroke-linejoin="round"/>
<path d="M386.962 249.907C386.962 249.907 396.343 244.805 403.754 245.656C411.165 246.506 414.283 249.071 414.283 249.071" stroke="#263238" stroke-width="2" stroke-linecap="round" stroke-linejoin="round"/>
<path d="M366.797 249.623C362.337 247.872 357.553 247.099 352.769 247.356C348.344 247.702 344.021 248.86 340.015 250.771" stroke="#263238" stroke-width="2" stroke-linecap="round" stroke-linejoin="round"/>
<path d="M357.204 262.164C357.204 264.517 356.24 266.415 355.064 266.415C353.888 266.415 352.924 264.502 352.924 262.164C352.924 259.826 353.888 257.913 355.064 257.913C356.24 257.913 357.204 259.826 357.204 262.164Z" fill="#263238"/>
<path d="M447.286 329.701C447.286 329.701 470.908 337.268 475.627 341.987C480.346 346.706 509.636 416.141 518.139 427.478C526.641 438.814 522.39 444.015 518.139 448.266C513.888 452.517 486.964 463.854 476.577 464.803C466.19 465.752 455.321 468.133 450.588 449.711C445.855 431.29 444.92 404.833 440.201 391.145C435.482 377.456 434.065 375.557 434.065 375.557" fill="#D4F1F3"/>
<g opacity="0.4">
<path opacity="0.4" d="M463.639 388.651C451.538 395.736 445.884 401.092 443.291 404.238C443.786 407.171 444.254 410.261 444.708 413.449C446.054 412.244 446.847 411.451 447.032 411.281C447.351 410.987 447.598 410.623 447.754 410.218C447.754 410.218 450.73 404.38 467.239 394.716C475.061 390.124 485.845 385.731 495.495 382.245L492.505 375.784C482.534 379.243 472.878 383.548 463.639 388.651Z" fill="white"/>
<path opacity="0.4" d="M475.202 406.945C457.645 416.141 450.205 425.168 447.074 430.879C447.612 434.591 448.193 438.247 448.859 441.747C449.624 441.093 450.344 440.388 451.013 439.636C451.421 439.137 451.694 438.542 451.807 437.907C451.807 437.794 454.244 425.919 478.49 413.222C486.998 408.737 496.146 405.587 505.612 403.884C504.578 401.73 503.515 399.505 502.452 397.224C492.952 399.148 483.776 402.422 475.202 406.945Z" fill="white"/>
<path opacity="0.4" d="M453.564 457.42C454.728 459.651 456.415 461.566 458.481 463.003C461.655 457.448 469.633 446.395 485.986 438.644C496.487 433.885 507.555 430.489 518.918 428.541L518.167 427.478C516.945 425.747 515.828 423.944 514.823 422.079C503.83 424.17 493.129 427.581 482.954 432.239C470.969 437.678 460.776 446.411 453.564 457.42Z" fill="white"/>
<path opacity="0.4" d="M436.913 382.005C437.678 384.003 438.642 386.61 439.747 389.983C439.795 389.952 439.839 389.913 439.875 389.869C440.085 389.676 440.271 389.457 440.427 389.217C440.654 388.891 459.373 360.947 481.862 353.38C480.658 350.929 479.581 348.775 478.645 347.003C458.934 354.131 442.766 374.041 436.913 382.005Z" fill="white"/>
<path opacity="0.4" d="M446.138 333.697L450.304 330.679L447.286 329.673L446.138 333.697Z" fill="white"/>
<path opacity="0.4" d="M442.114 347.684L438.812 359.02C448.816 351.24 459.6 343.503 468.131 337.552C465.722 336.432 463.029 335.341 460.394 334.321C454.768 338.317 448.448 342.866 442.114 347.684Z" fill="white"/>
</g>
<path d="M447.286 329.701C447.286 329.701 470.908 337.268 475.627 341.987C480.346 346.706 509.636 416.141 518.139 427.478C526.641 438.814 522.39 444.015 518.139 448.266C513.888 452.517 486.964 463.854 476.577 464.803C466.19 465.752 455.321 468.133 450.588 449.711C445.855 431.29 444.92 404.833 440.201 391.145C435.482 377.456 434.065 375.557 434.065 375.557" stroke="#263238" stroke-miterlimit="10"/>
<path d="M520.023 473.801C520.023 473.801 515.772 455.38 512.003 448.762C508.233 442.144 479.878 447.827 469.009 452.078C458.14 456.329 401.94 470.967 384.468 475.218C366.996 479.469 355.645 484.67 349.509 490.806C343.373 496.942 315.032 511.112 316.917 513.946C318.802 516.78 327.786 516.78 333.922 516.78C340.057 516.78 355.177 512.062 356.594 511.112C357.597 510.524 358.734 510.202 359.896 510.177L349.509 518.198C349.509 518.198 350.926 522.449 356.127 519.147C361.327 515.845 370.765 509.228 372.65 507.811C374.534 506.393 383.518 503.092 386.353 500.258C388.344 498.022 389.94 495.463 391.071 492.691C391.071 492.691 455.321 494.589 485.079 489.856C514.837 485.124 518.606 477.075 520.023 473.801Z" fill="white" stroke="#263238" stroke-linecap="round" stroke-linejoin="round"/>
<path d="M328.254 516.752C328.254 516.752 328.254 514.4 333.455 512.501C338.656 510.602 347.626 508.25 358.013 499.747" stroke="#263238" stroke-linecap="round" stroke-linejoin="round"/>
<path d="M359.897 510.149C359.897 510.149 366.515 505.416 370.298 502.114" stroke="#263238" stroke-linecap="round" stroke-linejoin="round"/>
<path d="M322.118 515.817C322.118 515.817 321.636 512.033 327.786 509.199C333.936 506.365 340.058 504.48 351.395 495.496" stroke="#263238" stroke-linecap="round" stroke-linejoin="round"/>
<path d="M270.155 497.395C270.155 497.395 266.853 485.138 262.12 463.882C257.387 442.626 238.98 440.26 230.945 442.158C222.91 444.057 217.724 450.179 220.09 462.932C222.457 475.686 242.281 512.529 245.115 515.845C247.95 519.161 267.788 516.781 272.989 510.645C278.19 504.509 270.155 497.395 270.155 497.395Z" fill="white" stroke="#263238" stroke-linecap="round" stroke-linejoin="round"/>
<path d="M250.315 513.479C250.315 513.479 266.852 501.193 272.039 498.841C277.225 496.488 295.661 496.474 301.797 497.891C307.933 499.308 315.967 516.313 315.967 516.313C315.967 516.313 263.536 519.147 255.984 519.147C248.431 519.147 245.597 520.564 245.115 515.845" fill="white"/>
<path d="M250.315 513.479C250.315 513.479 266.852 501.193 272.039 498.841C277.225 496.488 295.661 496.474 301.797 497.891C307.933 499.308 315.967 516.313 315.967 516.313C315.967 516.313 263.536 519.147 255.984 519.147C248.431 519.147 245.597 520.564 245.115 515.845" stroke="#263238" stroke-linecap="round" stroke-linejoin="round"/>
<path d="M284.792 518.169C284.792 518.169 272.521 505.416 270.154 503.063" stroke="#263238" stroke-linecap="round" stroke-linejoin="round"/>
<path d="M294.244 516.752L280.074 500.229" stroke="#263238" stroke-linecap="round" stroke-linejoin="round"/>
<path d="M306.049 517.234C306.049 517.234 296.611 503.559 291.411 499.308" stroke="#263238" stroke-linecap="round" stroke-linejoin="round"/>
<path d="M146.318 408.716H131.156V432.211H146.318V408.716Z" fill="#D4F1F3" stroke="#263238" stroke-linecap="round" stroke-linejoin="round"/>
<path d="M130.986 415.815L139.899 409.198" stroke="#263238" stroke-linecap="round" stroke-linejoin="round"/>
<path d="M131.312 421.427L146.318 408.716" stroke="#263238" stroke-linecap="round" stroke-linejoin="round"/>
<path d="M133.623 419.443L138.582 426.713" stroke="#263238" stroke-linecap="round" stroke-linejoin="round"/>
<path d="M137.916 416.141L143.541 424.729" stroke="#263238" stroke-linecap="round" stroke-linejoin="round"/>
<path d="M142.223 412.514L146.176 419.769" stroke="#263238" stroke-linecap="round" stroke-linejoin="round"/>
<path d="M132.304 432.324L146.177 422.419" stroke="#263238" stroke-linecap="round" stroke-linejoin="round"/>
<path d="M140.239 431.672L145.85 428.371" stroke="#263238" stroke-linecap="round" stroke-linejoin="round"/>
<path d="M237.294 431.545L234.261 435.017H161.566L158.548 431.545H116.235V463.924H279.593V431.545H237.294Z" fill="white" stroke="#263238" stroke-linecap="round" stroke-linejoin="round"/>
<path d="M309.96 501.349H263.623L253.689 420.024H319.894L309.96 501.349Z" fill="white" stroke="#263238" stroke-linecap="round" stroke-linejoin="round"/>
<path d="M305.751 420.024L305.056 501.349H309.959L319.893 420.024H305.751Z" fill="white" stroke="#263238" stroke-linecap="round" stroke-linejoin="round"/>
<path d="M232.631 441.308H164.598C163.291 441.308 162.232 442.368 162.232 443.675V444.001C162.232 445.308 163.291 446.367 164.598 446.367H232.631C233.938 446.367 234.998 445.308 234.998 444.001V443.675C234.998 442.368 233.938 441.308 232.631 441.308Z" fill="white" stroke="#263238" stroke-linecap="round" stroke-linejoin="round"/>
<path d="M123.305 463.882V564.804H369.405V530.016C369.405 528.816 369.168 527.628 368.709 526.52C368.249 525.412 367.576 524.405 366.727 523.558C365.878 522.71 364.87 522.038 363.762 521.581C362.653 521.123 361.464 520.888 360.265 520.89H189.779C187.968 520.89 186.23 520.17 184.949 518.889C183.669 517.609 182.949 515.871 182.949 514.06V500.47C182.951 493.238 184.754 486.121 188.195 479.76C191.636 473.4 196.608 467.996 202.66 464.038L123.305 463.882Z" fill="white" stroke="#263238" stroke-linecap="round" stroke-linejoin="round"/>
<path d="M116.306 463.882V564.804H362.32V520.876H182.695C180.886 520.872 179.152 520.151 177.874 518.87C176.596 517.59 175.879 515.855 175.879 514.046V500.456C175.891 493.22 177.705 486.101 181.159 479.743C184.613 473.384 189.597 467.987 195.661 464.038L116.306 463.882Z" fill="white" stroke="#263238" stroke-linecap="round" stroke-linejoin="round"/>
<path d="M137.604 559.533C146.182 559.533 153.135 552.58 153.135 544.002C153.135 535.425 146.182 528.471 137.604 528.471C129.027 528.471 122.073 535.425 122.073 544.002C122.073 552.58 129.027 559.533 137.604 559.533Z" fill="#858585" stroke="#263238" stroke-linecap="round" stroke-linejoin="round"/>
<path d="M261.936 487.533L263.622 501.349H309.959L311.646 487.533H261.936Z" fill="#858585" stroke="#263238" stroke-linecap="round" stroke-linejoin="round"/>
<path d="M305.17 487.533L305.056 501.349H309.959L311.645 487.533H305.17Z" fill="#666666" stroke="#263238" stroke-linecap="round" stroke-linejoin="round"/>
<path d="M206.557 576.07C206.557 576.07 118.969 578.649 112.536 577.36C106.102 576.07 133.14 567.058 169.218 562.551C205.296 558.045 264.529 576.722 264.529 576.722L206.557 576.07Z" fill="#D4F1F3" stroke="#263238" stroke-linecap="round" stroke-linejoin="round"/>
<path d="M310.13 512.161C303.682 512.359 297.235 512.912 290.815 513.649C279.082 514.981 256.48 513.479 247.609 522.35C247.609 522.35 234.728 542.316 229.584 550.691C224.44 559.065 220.572 564.209 215.414 566.136C210.256 568.064 188.362 577.09 188.362 577.09H371.261C371.261 577.09 398.185 578.026 407.155 567.086C416.891 555.268 400.325 541.806 391.865 535.471C377.907 525.014 362.546 520.522 345.854 515.902C334.201 512.867 322.158 511.606 310.13 512.161Z" fill="#D4F1F3" stroke="#263238" stroke-linecap="round" stroke-linejoin="round"/>
<path d="M364.289 562.169C364.289 562.169 393.097 556.501 418.392 561.46C443.686 566.42 479.509 562.169 496.33 563.572C513.15 564.975 540.598 568.489 540.598 568.489C540.598 568.489 498.441 575.574 476.661 576.92C454.881 578.266 434.504 579.754 434.504 579.754C434.504 579.754 423.266 580.463 393.749 571.323L364.289 562.169Z" fill="#D4F1F3" stroke="#263238" stroke-linecap="round" stroke-linejoin="round"/>
<path d="M303.88 576.92C317.366 575.377 330.591 572.07 343.217 567.086C364.997 558.654 377.652 560.001 393.806 566.377C409.961 572.754 415.586 578.323 434.561 579.726L303.88 576.92Z" fill="#263238" stroke="#263238" stroke-linecap="round" stroke-linejoin="round"/>
</svg>
